{"title":"Big Brother Canada S03E02 HDTV x264-LaS","uid":11778447,"size":320963298,"categoryP":"video","categoryS":"tv_shows","magnet":"?xt=urn:btih:21a5d1937cec8f9e8cba552af8efedf46c224542&amp;dn=Big+Brother+Canada+S03E02+HDTV+x264-LaS&amp;tr=udp%3A%2F%2Ftracker.openbittorrent.com%3A80&amp;tr=udp%3A%2F%2Fopen.demonii.com%3A1337&amp;tr=udp%3A%2F%2Ftracker.coppersurfer.tk%3A6969&amp;tr=udp%3A%2F%2Fexodus.desync.com%3A6969","seeders":3,"leechers":0,"uploader":"TvTeam","files":4,"time":1427447342,"description":" &lt;a href=&quot;https://www.torrenting.com&quot; rel=&quot;nofollow&quot; target=&quot;_NEW&quot;&gt;https://www.torrenting.com&lt;/a&gt;\n\nSign up is OPEN - for time being. Come and have fun.\n------------------------------------------------------------------------\n ^_^                           +      + +    \n                                +--++----+    \n                                +    \n                                +--+----    \n                           +      \n                           +------++-+  +-++------+    \n                                                                                                               \n*******************************************************************************\n                    Big Brother Canada S03E02 HDTV x264-LaS\n*******************************************************************************\n\n-------------------------------------------------------------------------------\n                              General Information\n-------------------------------------------------------------------------------\nType.................: TV Show\nVideo Format.........: x264\nResolution...........: 720x404\nFPS..................: 29.970\nIMDb Rating..........: 6.5\nMovie Information....: http://www.imdb.com/title/tt4553400/?ref_=ttep_ep2\n\nGeneral\nComplete name : Big Brother Canada S03E02 HDTV x264-LaS.mp4\nFormat : MPEG-4\nFormat profile : Base Media\nCodec ID : isom\nFile size : 301 MiB\nDuration : 44mn 1s\nOverall bit rate mode : Variable\nOverall bit rate : 957 Kbps\n\n\nVideo\nID : 1\nFormat : AVC\nFormat/Info : Advanced Video Codec\nFormat profile : &lt;a class=&quot;__cf_email__&quot; href=&quot;/cdn-cgi/l/email-protection&quot; data-cfemail=&quot;da92b3bdb29a96e9f4ea&quot;&gt;[email&amp;#160;protected]&lt;/a&gt;&lt;script cf-hash='f9e31' type=&quot;text/javascript&quot;&gt;\n/* &lt;![CDATA[ */!function(){try{var t=&quot;currentScript&quot;in document?document.currentScript:function(){for(var t=document.getElementsByTagName(&quot;script&quot;),e=t.length;e--;)if(t[e].getAttribute(&quot;cf-hash&quot;))return t[e]}();if(t&amp;&amp;t.previousSibling){var e,r,n,i,c=t.previousSibling,a=c.getAttribute(&quot;data-cfemail&quot;);if(a){for(e=&quot;&quot;,r=parseInt(a.substr(0,2),16),n=2;a.length-n;n+=2)i=parseInt(a.substr(n,2),16)^r,e+=String.fromCharCode(i);e=document.createTextNode(e),c.parentNode.replaceChild(e,c)}}}catch(u){}}();/* ]]&gt; */&lt;/script&gt;\nFormat settings, CABAC : Yes\nFormat settings, ReFrames : 5 frames\nCodec ID : avc1\nCodec ID/Info : Advanced Video Coding\nDuration : 44mn 0s\nBit rate : 824 Kbps\nMaximum bit rate : 3 130 Kbps\nWidth : 720 pixels\nHeight : 404 pixels\nDisplay aspect ratio : 16:9\nFrame rate mode : Constant\nFrame rate : 29.970 fps\nColor space : YUV\nChroma subsampling : 4:2:0\nBit depth : 8 bits\nScan type : Progressive\nBits/(Pixel*Frame) : 0.095\nStream size : 260 MiB (86%)\nWriting library : x264 core 130 r2273 b3065e6\n\n\nAudio\nID : 2\nFormat : AAC\nFormat/Info : Advanced Audio Codec\nFormat profile : LC\nCodec ID : 40\nDuration : 44mn 1s\nBit rate mode : Variable\nBit rate : 128 Kbps\nMaximum bit rate : 145 Kbps\nChannel(s) : 2 channels\nChannel positions : Front: L R\nSampling rate : 48.0 KHz\nCompression mode : Lossy\nStream size : 40.3 MiB (13%)\n\n-------------------------------------------------------------------------------\n                                 Release Notes\n-------------------------------------------------------------------------------\nBig Brother Canada - S03E02 &quot;Live Eviction&quot;\nAirdate: March 25, 2015","torrent":{"xt":"urn:btih:21a5d1937cec8f9e8cba552af8efedf46c224542","amp;dn":"Big+Brother+Canada+S03E02+HDTV+x264-LaS","amp;tr":["udp%3A%2F%2Ftracker.openbittorrent.com%3A80","udp%3A%2F%2Fopen.demonii.com%3A1337","udp%3A%2F%2Ftracker.coppersurfer.tk%3A6969","udp%3A%2F%2Fexodus.desync.com%3A6969"],"infoHash":"21a5d1937cec8f9e8cba552af8efedf46c224542","infoHashBuffer":{"type":"Buffer","data":[33,165,209,147,124,236,143,158,140,186,85,42,248,239,237,244,108,34,69,66]},"announce":[],"urlList":[]}}